<?xml version="1.0" encoding="UTF-8"?><svg xmlns="http://www.w3.org/2000/svg" viewBox="0 0 237.8 112.81"><defs><style>.d{fill:#5abcff;opacity:.3;}</style></defs><g id="a"/><g id="b"><g id="c"><path class="d" d="M229.8,57.39c-2.12,1.63-2.37,3.53-.71,5.63,1.58,1.99,3.65,2.22,5.7,.68,1.87-1.4,1.87-4.11,.71-5.6-1.54-1.97-3.68-2.26-5.7-.7Z"/><path class="d" d="M236.72,47.51c-1.33-1.89-3.6-2.47-5.64-.78-1.88,1.56-2.16,3.8-.61,5.73,1.53,1.9,3.54,2.12,5.52,.66,2.25-1.66,2.3-3.6,.74-5.61Z"/><path class="d" d="M233.95,68.73c-1.36-1.97-3.4-2.24-5.48-.69-1.94,1.45-2.39,3.6-.76,5.65,1.43,1.81,3.62,2.03,5.53,.5,2-1.6,2.28-3.64,.71-5.47Z"/><path class="d" d="M227.06,78.55c-1.96,1.46-2.28,3.56-.83,5.52,1.48,2.01,3.52,2.33,5.49,.86,2.11-1.57,2.3-3.32,.84-5.47-1.22-1.82-3.95-2.41-5.5-.9Z"/><path class="d" d="M225.75,89.24c-2.03,1.51-2.31,3.46-.79,5.46,1.49,1.96,3.58,2.26,5.48,.8,1.75-1.35,2.01-3.55,.85-5.39-1.03-1.63-4.1-2.4-5.53-.87Z"/><path class="d" d="M218.47,61.48c1.42,1.86,3.57,2.06,5.51,.75,1.75-1.18,2.08-4,.68-5.55-1.47-1.63-3.64-2.02-5.4-.71-1.85,1.38-2.18,3.68-.79,5.51Z"/><path class="d" d="M222.02,34.85c-1.92,1.48-2.17,3.57-.65,5.49,1.42,1.81,3.54,2.11,5.35,.76,1.92-1.43,2.21-3.54,.75-5.47-1.49-1.97-3.52-2.26-5.44-.78Z"/><path class="d" d="M220.03,50.96c1.21,1.97,3.7,1.82,5.33,.61,1.63-1.21,2.13-3.83,.73-5.57-1.18-1.47-3.83-1.89-5.42-.51-1.98,1.72-2.27,3.4-.63,5.47Z"/><path class="d" d="M214.34,93.31c1.29,1.69,3.56,1.9,5.34,.78,1.63-1.03,2.05-4.16,.73-5.55-1.4-1.49-3.77-1.87-5.41-.6-1.57,1.22-1.88,3.78-.66,5.37Z"/><path class="d" d="M217.9,66.67c-1.91,1.44-2.18,3.6-.7,5.48,1.38,1.76,3.6,2.06,5.36,.73,1.84-1.39,2.09-3.61,.62-5.49-1.41-1.8-3.48-2.09-5.28-.72Z"/><path class="d" d="M209.99,44.17c-1.64,1.28-1.93,3.66-.65,5.32,1.21,1.57,3.79,1.93,5.36,.74,1.7-1.3,1.99-3.85,.64-5.53-1.34-1.67-3.6-1.89-5.35-.53Z"/><path class="d" d="M223.52,105.33c1.35,1.77,3.48,2.08,5.28,.75,1.97-1.46,2.22-3.49,.96-5.43-1.12-1.73-3.93-2.02-5.51-.62-1.67,1.49-2.05,3.55-.72,5.3Z"/><path class="d" d="M205.83,76.02c-1.61,1.26-1.89,3.76-.59,5.37,1.14,1.42,3.8,1.76,5.25,.66,1.59-1.21,1.94-3.83,.71-5.41-1.3-1.67-3.68-1.95-5.37-.63Z"/><path class="d" d="M218.35,104.66c1.61-1.23,1.89-3.72,.6-5.37-1.36-1.74-3.59-2.01-5.32-.65-1.61,1.27-1.89,3.51-.65,5.19,1.24,1.68,3.75,2.07,5.37,.83Z"/><path class="d" d="M211.46,33.4c-1.67,1.26-1.99,3.67-.71,5.36,1.36,1.8,3.53,2.12,5.29,.8,1.69-1.27,2.05-3.67,.81-5.34-1.18-1.58-3.84-1.98-5.39-.81Z"/><path class="d" d="M206.58,70.61c1.36,1.79,3.56,2.1,5.32,.74,1.65-1.26,1.95-3.75,.66-5.38-1.13-1.43-3.81-1.81-5.25-.73-1.65,1.23-1.99,3.72-.73,5.38Z"/><path class="d" d="M213.27,60.67c1.76-1.36,2-3.55,.6-5.31-1.31-1.64-3.38-1.77-5.18-.59-1.65,1.08-1.97,3.92-.63,5.39,1.41,1.56,3.5,1.84,5.21,.51Z"/><path class="d" d="M217.44,28.85c1.69-.83,1.97-3.94,.71-5.3-1.48-1.61-3.55-1.94-5.32-.55-1.67,1.32-1.88,3.39-.72,5.16,1.03,1.57,3.9,2.19,5.32,.69Z"/><path class="d" d="M216.47,77.42c-1.83,1.42-2.07,3.47-.65,5.3,1.41,1.81,3.45,2.03,5.31,.58,1.74-1.36,2.04-3.63,.7-5.34-1.35-1.72-3.56-1.94-5.36-.54Z"/><path class="d" d="M202.25,21.56c-1.41,.84-1.83,3.88-.64,5.23,1.25,1.42,3.8,1.86,5.28,.72,1.39-1.06,1.72-3.91,.61-5.31-1.18-1.5-3.77-1.82-5.25-.65Z"/><path class="d" d="M200.27,37.55c1.23,1.46,3.7,1.6,5.26,.37,1.44-1.13,1.7-3.97,.52-5.25-1.3-1.42-3.72-1.62-5.26-.35-1.5,1.24-1.75,3.76-.52,5.23Z"/><path class="d" d="M198.12,53.36c-1.49,.87-1.85,3.93-.74,5.22,1.22,1.43,3.77,1.91,5.26,.82,1.41-1.03,1.8-3.86,.71-5.29-1.14-1.5-3.76-1.88-5.24-.75Z"/><path class="d" d="M209.76,87.37c-1.25-1.66-3.49-1.98-5.15-.74-1.68,1.25-2.02,3.51-.77,5.17,1.26,1.68,3.51,1.99,5.18,.73,1.64-1.25,1.98-3.53,.75-5.15Z"/><path class="d" d="M199.35,42.77c-1.44,1.18-1.65,3.81-.42,5.29,1.29,1.55,3.64,1.74,5.23,.56,1.44-1.07,1.55-4.07,.47-5.26-1.25-1.37-3.88-1.74-5.28-.59Z"/><path class="d" d="M196,69.26c1.16,1.49,3.73,1.74,5.25,.55,1.58-1.24,1.73-3.94,.62-5.24-1.2-1.4-3.73-1.59-5.09-.53-1.54,1.19-1.94,3.72-.78,5.22Z"/><path class="d" d="M208.38,97.99c-1.04-1.42-3.88-1.87-5.27-.83-1.46,1.09-1.74,3.72-.71,5.26,1.05,1.57,3.97,1.79,5.21,.8,1.46-1.17,1.89-3.69,.77-5.23Z"/><path class="d" d="M194.7,79.77c1.09,1.37,3.39,1.98,5.08,.76,1.65-1.19,1.72-3.89,.62-5.26-1.06-1.32-3.87-1.68-5.15-.67-1.36,1.07-1.65,3.75-.55,5.17Z"/><path class="d" d="M194.04,85.2c-1.3,1.06-1.98,3.24-.87,5.04,.93,1.51,3.8,2,5.24,.96,1.23-.89,1.64-3.86,.71-5.15-.97-1.33-3.73-1.79-5.08-.85Z"/><path class="d" d="M191.58,20.24c-1.16,1-1.44,4.13-.47,5.22,1.14,1.27,3.95,1.52,5.15,.46,1.25-1.1,1.54-3.94,.52-5.14-.99-1.16-4.1-1.48-5.2-.54Z"/><path class="d" d="M192.7,52.8c-.81-1.18-3.89-1.68-5.15-.83-1.16,.79-1.63,3.95-.76,5.17,.88,1.24,3.84,1.68,5.11,.75,1.28-.94,1.73-3.74,.81-5.09Z"/><path class="d" d="M189.69,35.81c1.02,1.43,3.77,1.88,5.11,.85,1.14-.88,1.54-3.73,.7-4.99-.9-1.36-3.65-1.87-5.06-.93-1.44,.95-1.83,3.57-.76,5.07Z"/><path class="d" d="M192.55,96.02c-1.3,1.02-1.65,3.95-.62,5.12,1.05,1.18,3.73,1.47,4.97,.53,1.38-1.04,1.78-3.76,.75-5.08-1.02-1.31-3.77-1.62-5.11-.57Z"/><path class="d" d="M185.62,67.75c1.03,1.29,3.68,1.67,4.94,.71,1.25-.95,1.57-3.96,.56-5.15-1.01-1.19-3.69-1.54-4.92-.64-1.37,1-1.67,3.71-.58,5.08Z"/><path class="d" d="M188.97,41.51c-1.5,1.4-1.82,3.54-.64,5.04,1.21,1.53,3.42,1.72,5.04,.56,1.3-.93,1.66-3.64,.66-4.89-1.03-1.29-3.37-1.92-5.06-.71Z"/><path class="d" d="M198.23,10.36c-.94-1.32-3.77-1.71-5.07-.7-1.26,.98-1.68,3.53-.79,4.87,.91,1.38,3.61,1.89,5.01,.86,1.61-1.18,1.72-3.38,.85-5.03Z"/><path class="d" d="M184.78,73.41c-1.26,1.03-1.62,3.63-.67,4.91,1.01,1.36,3.76,1.68,5.08,.59,1.2-.99,1.49-3.76,.52-4.94-1.02-1.24-3.72-1.55-4.93-.56Z"/><path class="d" d="M190.68,111.56c1.07,1.32,3.65,1.67,4.9,.66,1.17-.95,1.51-3.71,.61-4.93-.92-1.24-3.69-1.6-4.94-.64-1.35,1.04-1.64,3.58-.57,4.91Z"/><path class="d" d="M188.2,84.69c-1.05-1.31-3.36-1.61-4.71-.61-1.26,.92-1.63,3.81-.63,4.94,.99,1.11,3.67,1.44,4.8,.58,1.36-1.03,1.64-3.54,.54-4.91Z"/><path class="d" d="M184.01,34.9c1.28-1.03,1.56-3.48,.53-4.7-1.07-1.28-3.49-1.49-4.73-.41-1.29,1.12-1.57,3.56-.55,4.72,1.13,1.28,3.4,1.47,4.74,.39Z"/><path class="d" d="M180.74,23.77c1.07,1.34,3.34,1.65,4.65,.64,1.35-1.04,1.56-3.49,.41-4.82-1.12-1.29-3.45-1.54-4.64-.5-1.3,1.14-1.5,3.33-.42,4.68Z"/><path class="d" d="M181.68,51.53c-1.07-1.34-3.33-1.66-4.62-.67-1.37,1.05-1.6,3.5-.45,4.84,1.12,1.3,3.44,1.54,4.67,.49,1.32-1.14,1.5-3.28,.41-4.65Z"/><path class="d" d="M182.2,94.75c-1.44,1.05-1.77,3.13-.73,4.6,1.02,1.44,3.16,1.78,4.62,.73,1.44-1.03,1.76-3.17,.7-4.61-1.1-1.49-3.1-1.8-4.59-.72Z"/><path class="d" d="M178.52,40.3c-1.43,1.07-1.68,3.1-.55,4.6,1.09,1.45,3.21,1.74,4.59,.64,1.41-1.12,1.65-3.2,.55-4.61-1.17-1.48-3.09-1.75-4.59-.63Z"/><path class="d" d="M179.69,66.78c1.4-1.03,1.72-3.31,.67-4.66-1-1.28-3.17-1.57-4.52-.6-1.4,1.01-1.82,3.32-.85,4.66,.98,1.36,3.27,1.65,4.7,.59Z"/><path class="d" d="M182.68,8.55c-1.44,1.13-1.6,3.09-.39,4.57,1.15,1.41,3,1.64,4.4,.56,1.47-1.14,1.71-3.12,.55-4.58-1.19-1.5-3.07-1.73-4.57-.55Z"/><path class="d" d="M180.8,105.53c-1.46,1.17-1.71,2.94-.61,4.41,1.14,1.53,3.08,1.77,4.58,.55,1.44-1.17,1.61-2.94,.42-4.41-1.19-1.48-2.95-1.7-4.4-.54Z"/><path class="d" d="M173.87,76.63c1.17,1.55,2.85,1.81,4.34,.68,1.48-1.12,1.76-2.9,.69-4.37-1.19-1.62-2.94-1.87-4.51-.65-1.5,1.16-1.69,2.78-.52,4.34Z"/><path class="d" d="M177.33,83.54c-1.23-1.59-2.73-1.79-4.29-.57-1.54,1.2-1.75,2.82-.57,4.34,1.18,1.52,2.79,1.72,4.35,.53,1.57-1.21,1.75-2.7,.52-4.3Z"/><path class="d" d="M176.02,12.03c1.58-1.08,1.56-2.88,.38-4.26-1.2-1.41-2.63-1.61-4.12-.47-1.54,1.17-1.75,2.82-.55,4.31,1.21,1.51,2.75,1.66,4.3,.42Z"/><path class="d" d="M171.85,43.88c1.64-1.16,1.51-2.93,.36-4.29-1.2-1.42-2.66-1.61-4.16-.46-1.53,1.17-1.74,2.87-.54,4.35,1.2,1.49,2.8,1.63,4.34,.4Z"/><path class="d" d="M174.53,104.73c-.79-1.39-2.92-1.55-4.3-.48-1.39,1.07-1.54,2.95-.38,4.29,1.2,1.39,2.65,1.6,4.12,.48,1.51-1.17,1.73-2.81,.56-4.28Z"/><path class="d" d="M169.5,60.85c-1.09-1.64-2.91-1.51-4.28-.37-1.56,1.28-1.69,2.63-.36,4.25,1.2,1.47,2.52,1.57,4.09,.38,1.38-1.04,1.93-2.73,.55-4.26Z"/><path class="d" d="M159.86,20.78c1.2,1.49,2.55,1.63,4.06,.44,1.55-1.22,1.59-2.63,.47-4.28-.85-1.25-3.05-1.26-4.17-.27-1.41,1.25-1.58,2.59-.35,4.1Z"/><path class="d" d="M173.7,28.99c-1.2-1.71-2.96-1.46-4.31-.37-1.54,1.24-1.65,2.7-.34,4.29,1.19,1.44,2.61,1.57,4.13,.37,1.6-1.26,1.78-2.72,.52-4.3Z"/><path class="d" d="M171.73,93.57c-1.52,1.15-1.73,2.8-.6,4.3,1.17,1.56,2.99,1.64,4.29,.56,1.49-1.23,1.68-2.7,.43-4.29-1.15-1.47-2.67-1.68-4.12-.58Z"/><path class="d" d="M166.07,53.97c1.13,1.53,2.78,1.76,4.3,.6,1.46-1.11,1.67-2.62,.58-4.12-1.17-1.6-2.81-1.86-4.25-.77-1.38,1.05-1.82,2.78-.62,4.29Z"/><path class="d" d="M167.58,75.73c1.57-.99,1.62-2.86,.43-4.25-1.21-1.42-2.62-1.6-4.12-.44-1.49,1.15-1.7,2.66-.59,4.13,1.17,1.56,2.73,1.76,4.28,.56Z"/><path class="d" d="M174.87,18.28c-1.28-1.44-2.84-1.51-4.3-.16-1.35,1.25-1.38,2.84-.04,4.33,1.14,1.27,2.79,1.33,4.19,.16,1.43-1.21,1.49-2.82,.16-4.33Z"/><path class="d" d="M158.91,27.19c-1.51,1.15-1.7,2.59-.57,4.1,1.13,1.51,2.6,1.7,4.12,.53,1.51-1.17,1.69-2.58,.51-4.09-1.24-1.59-2.48-1.76-4.06-.55Z"/><path class="d" d="M160.74,96.53c1.24,1.51,2.43,1.59,4.05,.27,1.53-1.25,1.59-2.46,.49-4.07-.89-1.31-2.87-1.53-4.28-.26-1.42,1.28-1.55,2.48-.25,4.06Z"/><path class="d" d="M156.18,48.44c-1.35,.82-1.72,2.81-.59,4.1,1.29,1.48,2.56,1.73,4.09,.55,1.47-1.13,1.7-2.65,.61-4.1-1.1-1.47-2.61-1.67-4.11-.55Z"/><path class="d" d="M151.46,84.38c1.14,1.45,2.65,1.62,4.08,.48,1.38-1.11,1.56-2.71,.45-4.11-1.06-1.33-2.72-1.45-4.13-.29-1.34,1.1-1.49,2.54-.39,3.93Z"/><path class="d" d="M154.21,63.17c1.12,1.45,2.65,1.57,4.16,.42,1.09-.83,1.6-2.64,.47-3.97-1.3-1.52-2.54-1.76-4.09-.57-1.47,1.12-1.66,2.65-.53,4.12Z"/><path class="d" d="M159.17,106.94c1.11,1.5,2.65,1.73,4.11,.63,1.57-1.19,1.68-2.45,.58-4.09-1.02-1.51-2.92-1.52-4.13-.51-1.37,1.14-1.6,2.57-.56,3.97Z"/><path class="d" d="M162.65,81.55c-1.72,1.25-1.93,2.53-.68,4.19,1.15,1.53,2.53,1.75,4.06,.64,1.56-1.13,1.77-2.49,.62-4.05-1.24-1.66-2.47-1.91-4-.79Z"/><path class="d" d="M150.94,36.91c-1.02-1.26-2.89-1.4-4.17-.32-1.18,1-1.29,2.73-.25,3.99,1.04,1.27,2.67,1.39,3.97,.3,1.25-1.05,1.44-2.76,.45-3.98Z"/><path class="d" d="M151.14,4.61c-1.28,.96-1.52,2.64-.56,3.95,.99,1.36,2.58,1.61,3.93,.61,1.31-.97,1.65-2.7,.76-3.94-.97-1.35-2.8-1.63-4.13-.63Z"/><path class="d" d="M154.57,91.48c-1.13-1.46-2.68-1.64-4.11-.48-1.27,1.04-1.42,2.64-.38,3.98,1.05,1.34,2.6,1.51,3.97,.43,1.36-1.07,1.56-2.59,.52-3.94Z"/><path class="d" d="M148.37,25.92c-1.33,1.05-1.55,2.66-.52,3.96,1.04,1.33,2.63,1.55,3.97,.55,1.35-1.01,1.54-2.53,.48-3.95-1.06-1.42-2.56-1.64-3.93-.56Z"/><path class="d" d="M149.71,15.34c-1.34,1.06-1.52,2.58-.46,3.93,1.06,1.35,2.55,1.53,3.93,.47,1.52-1.17,1.68-2.58,.45-4.07-1.12-1.36-2.48-1.48-3.92-.33Z"/><path class="d" d="M149.53,47.62c-1.11-1.44-2.44-1.61-3.9-.52-1.41,1.05-1.65,2.52-.65,3.91,1.06,1.46,2.65,1.66,4.08,.52,1.41-1.13,1.57-2.47,.46-3.91Z"/><path class="d" d="M152.86,73.78c.82,1.46,2.89,1.45,4.06,.42,1.46-1.28,1.61-2.46,.31-4.05-1.21-1.48-2.33-1.6-3.87-.4-1.57,1.23-1.73,2.47-.5,4.03Z"/><path class="d" d="M161.21,10.08c1.23,1.58,2.44,1.72,4.06,.45,1.59-1.24,1.63-2.36,.38-4.07-.91-1.25-2.63-1.55-3.92-.45-1.57,1.33-1.77,2.46-.53,4.07Z"/><path class="d" d="M149.16,101.66c-1.36,1.09-1.53,2.57-.46,3.94,1.07,1.35,2.54,1.52,3.94,.43,1.43-1.1,1.58-2.45,.43-3.92-1.13-1.44-2.49-1.59-3.91-.46Z"/><path class="d" d="M145.31,79.48c-1.03-1.32-2.62-1.5-3.95-.44-1.27,1.01-1.44,2.72-.39,3.97,.99,1.18,2.57,1.35,3.8,.41,1.35-1.02,1.57-2.61,.54-3.94Z"/><path class="d" d="M157.01,41.93c1.23,1.6,2.35,1.68,4.04,.51,1.37-.95,1.65-2.58,.51-4.05-1.12-1.45-2.76-1.61-4.05-.5-1.55,1.33-1.74,2.44-.5,4.04Z"/><path class="d" d="M142.81,68.27c-1.21,.88-1.48,2.79-.57,4.02,.89,1.19,2.59,1.45,3.82,.59,1.29-.9,1.66-2.8,.78-3.98-.85-1.15-2.87-1.46-4.03-.62Z"/><path class="d" d="M147.71,62.2c1.28-1.01,1.4-2.58,.32-3.95-1.04-1.32-2.65-1.48-3.94-.39-1.25,1.05-1.4,2.72-.36,3.97,1.01,1.21,2.73,1.38,3.98,.38Z"/><path class="d" d="M143.9,90.24c-.87-1.21-2.58-1.5-3.78-.64-1.14,.83-1.5,2.69-.73,3.8,.77,1.11,2.93,1.47,4.01,.68,1.07-.79,1.32-2.7,.5-3.84Z"/><path class="d" d="M141.2,28.86c.98-.81,1.27-2.91,.53-3.87-.79-1.03-3.03-1.21-4.05-.34-1.01,.86-1.18,2.88-.34,3.87,.87,1.01,2.84,1.19,3.87,.35Z"/><path class="d" d="M138.08,104.08c.77,1.06,2.8,1.32,3.86,.49,1.02-.8,1.35-2.93,.6-3.88-.68-.85-3.03-1.14-3.93-.49-.93,.68-1.24,2.9-.53,3.88Z"/><path class="d" d="M142.96,14.41c-.83-1-2.94-1.26-3.88-.48-.9,.75-1.13,2.97-.41,3.91,.8,1.03,2.79,1.24,3.87,.4,1.13-.88,1.33-2.73,.41-3.84Z"/><path class="d" d="M137,60.69c.96-.79,1.23-2.98,.48-3.89-.76-.93-2.94-1.12-3.91-.36-1.03,.81-1.27,2.87-.45,3.86,.84,1.02,2.86,1.22,3.87,.38Z"/><path class="d" d="M140.21,35.58c-.85-1.04-2.83-1.2-3.88-.31-1.09,.92-1.25,2.84-.34,3.87,.88,.99,2.97,1.18,3.92,.35,.93-.81,1.1-2.95,.31-3.91Z"/><path class="d" d="M140.63,3.38c-1.06,.8-1.35,2.61-.6,3.68,.75,1.08,2.81,1.45,3.88,.71,.98-.68,1.31-2.87,.59-3.89-.79-1.1-2.75-1.35-3.87-.51Z"/><path class="d" d="M138.75,46.26c-.83-.99-2.99-1.23-3.89-.43-.87,.78-1.04,3.05-.29,3.93,.84,.99,2.91,1.09,3.91,.2,.98-.88,1.11-2.7,.28-3.7Z"/><path class="d" d="M136.05,67.51c-.79-1.03-2.83-1.23-3.86-.38-1.02,.85-1.25,2.64-.48,3.67,.77,1.03,2.88,1.35,3.86,.59,.92-.71,1.19-2.95,.47-3.88Z"/><path class="d" d="M128.69,12.69c-.98,.73-1.27,2.75-.52,3.67,.67,.82,2.96,1.14,3.72,.51,.72-.6,1.06-3.04,.53-3.77-.64-.88-2.78-1.11-3.74-.41Z"/><path class="d" d="M134.55,78.17c-.7-.87-2.86-1.2-3.71-.57-.87,.65-1.16,3.08-.47,3.92,.73,.89,2.79,1.08,3.74,.33,.99-.78,1.22-2.72,.45-3.69Z"/><path class="d" d="M126.75,26.86c.73,1.02,2.62,1.29,3.65,.5,.95-.72,1.27-2.77,.56-3.67-.61-.78-2.9-1.11-3.72-.53-.89,.63-1.17,2.74-.49,3.7Z"/><path class="d" d="M133.27,88.77c-.61-.83-2.84-1.13-3.75-.51-1,.68-1.34,2.99-.49,3.84,.85,.85,2.81,1.21,3.7,.42,.81-.72,1.16-2.92,.54-3.75Z"/><path class="d" d="M126.74,55.54c-.63-.77-2.99-1.06-3.73-.46-.88,.71-1.07,2.81-.34,3.72,.75,.92,2.51,1.13,3.49,.41,.97-.71,1.29-2.78,.58-3.66Z"/><path class="d" d="M128.09,99.09c-.94,.79-1.16,2.55-.45,3.49,.7,.93,2.81,1.26,3.68,.58,.78-.61,1.06-2.94,.46-3.73-.69-.9-2.8-1.09-3.7-.33Z"/><path class="d" d="M129.55,34.42c-.66-.93-2.76-1.27-3.67-.59-.86,.64-1.2,2.82-.58,3.7,.6,.85,2.79,1.19,3.7,.56,.92-.63,1.24-2.71,.55-3.67Z"/><path class="d" d="M130.08,2.01c-.85,.65-1.16,2.88-.52,3.71,.64,.83,2.89,1.09,3.72,.43,.81-.65,1.07-2.63,.47-3.53-.64-.95-2.76-1.3-3.67-.61Z"/><path class="d" d="M124.54,44.55c-.95,.69-1.23,2.48-.55,3.48,.62,.9,2.86,1.32,3.68,.68,.79-.62,1.06-2.99,.42-3.77-.68-.84-2.64-1.05-3.55-.39Z"/><path class="d" d="M125.32,66.3c-.65-.92-2.77-1.24-3.64-.55-.85,.67-1.12,2.87-.46,3.68,.58,.71,2.69,1.01,3.51,.5,.92-.57,1.26-2.69,.6-3.63Z"/><path class="d" d="M120.31,76.53c-.96,.79-1.09,2.47-.27,3.42,.75,.87,2.7,1.12,3.46,.44,.77-.7,.94-2.74,.29-3.54-.74-.91-2.56-1.08-3.48-.32Z"/><path class="d" d="M122.4,87.62c-.68-.94-2.18-1.18-3.21-.5-1.08,.71-1.4,2.35-.66,3.35,.7,.94,2.22,1.19,3.25,.53,1.02-.66,1.33-2.4,.62-3.39Z"/><path class="d" d="M113.98,43.38c-.98,.8-1.14,2.2-.36,3.2,.77,1,2.17,1.21,3.19,.46,1.05-.77,1.21-2.32,.36-3.34-.78-.93-2.25-1.08-3.18-.32Z"/><path class="d" d="M121.47,12c-.75-1.02-2.12-1.27-3.15-.57-1.1,.75-1.32,2.29-.48,3.34,.79,.98,2.2,1.16,3.19,.4,.99-.76,1.18-2.15,.43-3.17Z"/><path class="d" d="M117.25,100.94c.71,.99,2.14,1.27,3.14,.61,1.05-.7,1.27-2.28,.46-3.31-.78-.98-2.19-1.19-3.15-.46-.93,.71-1.14,2.19-.44,3.16Z"/><path class="d" d="M120.17,.65c-1.48,1.09-1.66,2.39-.55,3.84,1.03,1.33,2.34,1.57,3.67,.68,1.37-.92,1.69-2.58,.76-3.92-.98-1.41-2.47-1.64-3.89-.59Z"/><path class="d" d="M112.39,57.16c.89,1.07,1.96,1.14,3.09,.2,1.01-.85,1.12-1.88,.31-2.94-.82-1.06-2.11-1.23-3.14-.39-1.05,.84-1.15,2.07-.27,3.13Z"/><path class="d" d="M115.51,32.85c-1.17,.89-1.3,1.94-.37,3.1,.84,1.05,1.92,1.22,2.97,.48,1.08-.76,1.32-2.11,.55-3.18-.8-1.11-2.02-1.27-3.15-.41Z"/><path class="d" d="M117.97,26.29c2.12-.75,2.71-1.36,2.51-2.55-.18-1.07-1.07-2.03-1.99-2.15-.91-.12-2.08,.67-2.44,1.65-.4,1.09,.18,2.01,1.92,3.06Z"/><path class="d" d="M113.99,68.13c1.07-.84,1.18-2.09,.28-3.15-.88-1.02-1.83-1.09-2.95-.22-1.18,.92-1.27,1.87-.27,3.06,.88,1.05,1.87,1.15,2.94,.31Z"/><path class="d" d="M113.73,77.12c-.67-.88-1.33-1.74-2.13-2.77-1.01,.78-1.87,1.44-2.68,2.05,0,1.5,.68,2.62,1.89,2.86,1.26,.25,2.16-.77,2.92-2.15Z"/><path class="d" d="M119.42,109c-.81-1.13-2.04-1.3-3.12-.45-1.07,.84-1.19,1.81-.37,2.93,.86,1.18,1.71,1.35,2.86,.57,1.24-.85,1.46-1.91,.64-3.05Z"/><path class="d" d="M105.19,22.43c.62,.8,1.27,1.65,1.9,2.48,1.36-.33,2.44-.85,2.75-2.17,.17-.73-1.01-2.17-1.79-2.39-.78-.22-1.63,.37-2.86,2.08Z"/><path class="d" d="M107.12,96.71c-1.12,.91-1.19,1.71-.24,2.87,.87,1.08,1.81,1.17,2.9,.28,1.03-.84,1.12-1.88,.25-2.93-.88-1.07-1.78-1.14-2.91-.22Z"/><path class="d" d="M106.64,30.9c-1.82,.52-2.69,1.25-2.66,2.25,.03,.91,1.09,2.14,1.94,2.23,.73,.08,2.18-.9,2.48-1.68,.3-.8-.2-1.6-1.76-2.8Z"/><path class="d" d="M112.22,87.99c-.52-1.31-.93-2.51-2.4-2.59-.93-.05-2.42,1.26-2.17,1.97,.3,.86,.87,1.93,1.62,2.28,1.36,.62,2.11-.64,2.95-1.66Z"/><path class="d" d="M100.43,66.3c.86,1.06,1.79,1.13,2.91,.2,1.11-.92,1.16-1.72,.19-2.87-.82-.97-1.68-1.05-2.73-.24-1.09,.84-1.22,1.85-.37,2.91Z"/><path class="d" d="M109.26,9.56c-1.2,.56-2.6,.97-2.32,2.43,.15,.8,1.02,1.62,1.78,2.1,.65,.41,2.26-.69,2.42-1.6,.26-1.41-.78-2.12-1.88-2.93Z"/><path class="d" d="M105.08,41.4c-1.21,.56-2.6,.96-2.33,2.42,.15,.8,1.02,1.62,1.78,2.11,.64,.41,2.25-.69,2.42-1.59,.27-1.41-.77-2.12-1.87-2.94Z"/><path class="d" d="M98.61,19.99c-.78-1.04-1.7-1.18-2.74-.41-1.02,.75-1.19,1.76-.47,2.75,.73,1,1.74,1.15,2.76,.4,1.01-.74,1.18-1.77,.45-2.73Z"/><path class="d" d="M99.38,95.6c-.75-.96-1.78-1.06-2.76-.28-.98,.79-1.11,1.81-.34,2.77,.76,.95,1.79,1.05,2.77,.27,.99-.79,1.11-1.75,.32-2.75Z"/><path class="d" d="M104.78,108.49c.74,1.97,1.54,2.88,2.33,2.49,.82-.4,1.91-1.13,2.02-1.85,.1-.7-.72-1.94-1.44-2.27-1.34-.61-2.11,.64-2.92,1.63Z"/><path class="d" d="M103.49,52.07c-1.11,.68-2.47,.99-2.18,2.6,.17,.95,1.41,2.17,1.97,1.91,.84-.39,1.71-.98,2.25-1.71,.48-.65-.4-1.75-2.03-2.79Z"/><path class="d" d="M96.87,11.78c.79,.96,1.75,1.05,2.74,.26,.97-.77,1.06-1.75,.27-2.74-.78-.97-1.77-1.06-2.75-.26-.98,.8-1.07,1.75-.26,2.74Z"/><path class="d" d="M102.23,74.53c-.87-1.19-1.57-1.34-2.66-.58-1.22,.85-1.35,1.69-.46,2.86,.84,1.1,1.62,1.22,2.71,.42,1.11-.82,1.23-1.56,.41-2.69Z"/><path class="d" d="M92.7,43.64c.79,.94,1.77,1.03,2.74,.23,.95-.78,1.04-1.76,.23-2.74-.78-.96-1.78-1.04-2.75-.23-.97,.81-1.05,1.76-.23,2.74Z"/><path class="d" d="M98.08,84.66c-1.12,.83-1.27,1.59-.5,2.68,.83,1.19,1.72,1.32,2.85,.44,1.08-.84,1.18-1.61,.34-2.7-.82-1.08-1.63-1.2-2.7-.41Z"/><path class="d" d="M94.28,51.69c-.75-.86-1.86-.91-2.75-.13-.88,.77-.95,1.87-.18,2.76,.75,.86,1.86,.9,2.76,.11,.91-.8,.97-1.82,.17-2.74Z"/><path class="d" d="M94.07,32.86c.82,1.12,1.6,1.25,2.68,.47,1.11-.81,1.23-1.56,.41-2.67-.84-1.14-1.58-1.28-2.66-.48-1.1,.81-1.23,1.59-.43,2.68Z"/><path class="d" d="M97.91,106.28c-.81-1.01-1.75-1.11-2.71-.29-.91,.77-.97,1.79-.15,2.75,.74,.86,1.64,.95,2.57,.25,1.02-.77,1.12-1.67,.29-2.71Z"/><path class="d" d="M90.25,62.08c-1.02,.8-1.11,1.69-.27,2.72,.82,1.01,1.71,1.09,2.73,.23,.94-.78,1-1.51,.23-2.55-.82-1.1-1.64-1.23-2.68-.41Z"/><path class="d" d="M88.8,72.74c-.88,.7-1.02,1.7-.37,2.59,.72,.99,1.79,1.15,2.75,.4,.94-.74,1.04-1.85,.23-2.77-.73-.84-1.73-.92-2.61-.22Z"/><path class="d" d="M83.76,28.94c-.76,.64-.89,1.81-.28,2.6,.69,.9,1.91,.99,2.77,.21,.79-.72,.84-1.8,.12-2.61-.71-.8-1.8-.89-2.61-.21Z"/><path class="d" d="M87.46,83.34c-.87,.68-1,1.96-.29,2.78,.66,.76,1.8,.85,2.62,.19,.84-.66,1.01-1.74,.41-2.58-.65-.9-1.87-1.08-2.75-.4Z"/><path class="d" d="M86.04,93.99c-.77,.63-.89,1.78-.27,2.58,.69,.89,1.91,1.01,2.74,.26,.76-.69,.8-1.78,.1-2.59-.71-.83-1.75-.93-2.57-.25Z"/><path class="d" d="M80.79,52.76c.62,.75,1.84,.89,2.59,.28,.78-.63,.88-1.78,.24-2.59-.66-.83-1.77-.95-2.58-.28-.81,.67-.92,1.78-.25,2.6Z"/><path class="d" d="M85.33,18.22c-.86,.62-1.06,1.69-.47,2.55,.64,.95,1.83,1.14,2.72,.44,.81-.65,.93-1.7,.29-2.57-.66-.89-1.65-1.06-2.54-.43Z"/><path class="d" d="M84.67,104.66c-.78,.63-.92,1.88-.29,2.62,.63,.74,1.91,.84,2.63,.2,.65-.57,.77-1.74,.25-2.46-.59-.83-1.8-1-2.6-.36Z"/><path class="d" d="M78,93.02c-.56-.75-1.9-.92-2.59-.33-.58,.5-.74,1.82-.3,2.44,.54,.75,1.87,.9,2.59,.3,.68-.56,.82-1.71,.29-2.42Z"/><path class="d" d="M79.71,60.71c-.77,.54-.99,1.83-.43,2.61,.57,.78,1.83,.95,2.61,.34,.73-.56,.91-1.66,.4-2.43-.55-.83-1.78-1.08-2.59-.52Z"/><path class="d" d="M74.6,16.97c-.66,.53-.77,2.03-.2,2.62,.55,.57,1.87,.69,2.46,.22,.72-.56,.82-1.95,.19-2.61-.58-.62-1.82-.73-2.45-.23Z"/><path class="d" d="M76.99,81.96c-.78,.55-.98,1.8-.41,2.56,.56,.74,1.86,.91,2.58,.34,.63-.51,.82-1.7,.37-2.4-.54-.84-1.72-1.07-2.53-.5Z"/><path class="d" d="M86.7,7.6c-.8,.58-1.02,1.79-.47,2.6,.53,.79,1.78,1.03,2.6,.5,.92-.59,1.14-1.89,.48-2.75-.58-.75-1.82-.92-2.6-.36Z"/><path class="d" d="M85.08,39.8c-.6-.74-1.88-.89-2.63-.3-.73,.58-.9,1.93-.33,2.64,.59,.73,1.91,.87,2.64,.28,.73-.58,.88-1.91,.31-2.62Z"/><path class="d" d="M67.75,70.01c-.6,.45-.79,1.82-.35,2.43,.48,.66,1.73,.83,2.41,.33,.69-.51,.87-1.71,.35-2.39-.45-.59-1.84-.8-2.41-.37Z"/><path class="d" d="M80.93,71.72c-.5-.7-1.87-.92-2.59-.41-.72,.51-.95,1.88-.44,2.6,.49,.7,1.89,.91,2.6,.4,.74-.53,.95-1.84,.42-2.58Z"/><path class="d" d="M71.58,40.63c.5,.66,1.71,.84,2.41,.34,.69-.49,.91-1.69,.43-2.39-.51-.76-1.9-.97-2.57-.39-.56,.47-.71,1.85-.27,2.44Z"/><path class="d" d="M76.02,6.37c-.55,.49-.67,1.88-.22,2.45,.58,.73,1.94,.81,2.6,.15,.62-.63,.65-1.82,.06-2.43-.56-.59-1.87-.68-2.44-.17Z"/><path class="d" d="M72.63,51.65c.62-.47,.79-1.77,.31-2.43-.48-.67-1.75-.92-2.42-.46-.7,.48-.9,1.96-.35,2.61,.48,.56,1.88,.72,2.45,.29Z"/><path class="d" d="M71.9,60.16c-.6-.93-1.99-1.16-2.64-.75-.64,.4-.92,1.76-.49,2.39,.38,.57,2,.96,2.38,.41,.45-.64,.57-1.52,.75-2.06Z"/><path class="d" d="M65.08,26.58c-.43-.58-2.1-.85-2.36-.27-.29,.66-.51,1.74-.17,2.19,.34,.45,1.43,.52,2.15,.43,.6-.07,.8-1.78,.38-2.35Z"/><path class="d" d="M73.29,27.63c-.61,.51-.77,1.84-.29,2.44,.43,.54,1.9,.73,2.45,.32,.67-.5,.85-2.04,.31-2.62-.5-.54-1.89-.62-2.47-.14Z"/><path class="d" d="M77.04,103.21c-1.23,0-2.09-.14-2.86,.06-.63,.17-.8,1.8-.39,2.4,.47,.69,2.18,.98,2.57,.3,.39-.68,.41-1.58,.69-2.77Z"/><path class="d" d="M58.16,60.49c1.01,.17,1.93,.97,2.59-.02,.33-.49,.3-1.52-.02-2.04-.24-.4-1.26-.65-1.79-.49-1.18,.34-.72,1.44-.78,2.55Z"/><path class="d" d="M68.62,81.03c-.51-.61-2.07-.84-2.36-.23-.31,.65-.37,1.53-.21,2.24,.13,.61,1.83,.82,2.36,.41,.61-.46,.73-1.81,.22-2.42Z"/><path class="d" d="M66.62,15.91c-2.22-.62-2.6-.5-2.88,.86-.22,1.07,.09,1.49,1.21,1.63,1.37,.17,1.58-.12,1.67-2.48Z"/><path class="d" d="M64.66,91.08c.04,1.11-.1,1.92,.14,2.6,.22,.6,1.7,.6,2.21,.13,.51-.47,.74-2.03,.25-2.24-.68-.29-1.49-.3-2.61-.49Z"/><path class="d" d="M66.13,102.64c-.66-.91-2-1.11-2.41-.48-.35,.54-.5,1.37-.38,2,.12,.62,1.7,.88,2.11,.32,.42-.56,.51-1.37,.67-1.84Z"/><path class="d" d="M65.6,5.07c-.61,.43-.87,1.8-.27,2.19,.54,.35,1.4,.48,2.03,.34,.7-.16,.9-1.52,.47-2.15-.44-.63-1.59-.83-2.23-.38Z"/><path class="d" d="M62.38,47.76c-.92-.34-1.85-.77-2.49,.16-.31,.45-.37,1.44-.07,1.81,.31,.38,1.28,.57,1.8,.39,1.11-.38,.77-1.43,.76-2.36Z"/><path class="d" d="M61,36.64c.09,1.1-.02,1.84,.23,2.44,.27,.65,1.43,.72,2.01,.27,.65-.51,.82-1.8,.16-2.18-.56-.33-1.32-.31-2.41-.53Z"/><path class="d" d="M57.57,68.65c-.93,.73-1,1.63-.45,2.26,.53,.61,1.16,.68,1.81,.22,.68-.48,.93-1.51,.33-1.95-.51-.37-1.27-.41-1.69-.53Z"/><path class="d" d="M56.81,90.06c-1.03,.1-1.72-.02-2.19,.25-.66,.38-.69,1.1-.18,1.73,.52,.63,1.25,.7,1.73,.13,.35-.41,.35-1.11,.63-2.11Z"/><path class="d" d="M53.76,14.56c-.66,.59-.56,1.17-.07,1.77,.56,.68,1.25,.63,1.68,.02,.26-.37,.29-1.14,.07-1.53-.36-.64-1.05-.76-1.69-.25Z"/><path class="d" d="M56.98,6.27c-.05-.97,.07-1.55-.14-1.96-.39-.76-1.05-.69-1.67-.18-.58,.48-.57,1.1-.08,1.53,.35,.31,.95,.33,1.88,.61Z"/><path class="d" d="M49.16,47.73c.72,.97,1.26,1.12,1.94,.6,.58-.45,.66-.98,.28-1.55-.42-.63-1.07-.98-1.67-.41-.37,.35-.43,1.04-.55,1.37Z"/><path class="d" d="M50.38,37.79c.97-.03,1.55,.09,1.98-.1,.6-.27,.8-.85,.38-1.49-.46-.69-1.09-.86-1.66-.27-.32,.34-.37,.94-.7,1.85Z"/><path class="d" d="M53.04,102.63c.54,.67,1.22,.71,1.69,.08,.28-.37,.39-1.12,.2-1.53-.33-.71-1.07-.76-1.71-.3-.66,.49-.67,1.1-.18,1.74Z"/><path class="d" d="M44.21,88.87c-.89,.81-.67,1.31-.24,1.8,.5,.57,1.03,.49,1.54,.04,.65-.57,.55-1.26-.07-1.68-.37-.25-.99-.14-1.23-.16Z"/><path class="d" d="M47.95,56.67c0,.94-.14,1.51,.04,1.93,.32,.71,.97,.89,1.64,.38,.64-.49,.76-1.16,.17-1.7-.34-.31-.95-.33-1.86-.62Z"/><path class="d" d="M54.39,25.78c-.74-.94-1.33-1.01-1.97-.52-.55,.42-.73,.92-.3,1.54,.44,.64,1.07,.98,1.67,.4,.38-.37,.46-1.06,.6-1.42Z"/><path class="d" d="M58.08,79.53c-.94,.05-1.54-.07-1.97,.15-.74,.38-.74,1.12-.28,1.72,.45,.59,1.21,.84,1.74,.22,.34-.39,.29-1.11,.5-2.09Z"/><path class="d" d="M34.33,1.16c-.89,.68-.83,1.18-.36,1.73,.44,.52,.87,.44,1.35,.08,.64-.48,.61-1.05,.07-1.49-.31-.26-.84-.26-1.06-.32Z"/><path class="d" d="M31.71,33.14c-.87,.02-1.45-.13-1.71,.09-.28,.24-.45,.9-.32,1.25,.25,.67,.88,.85,1.41,.27,.27-.3,.32-.81,.61-1.62Z"/><path class="d" d="M41.46,112.02c.23-.02,.74,.06,1.11-.12,.72-.36,.6-.93,.15-1.49-.4-.49-.83-.6-1.36-.19-.61,.47-.62,.98,.1,1.8Z"/><path class="d" d="M42.98,13.67c.01,.23-.1,.74,.09,1.1,.36,.7,1.02,.67,1.46,.12,.25-.31,.37-.97,.21-1.31-.33-.69-.94-.61-1.76,.09Z"/><path class="d" d="M36.37,77.25c-.46-.62-1.05-.61-1.47-.07-.23,.31-.34,1-.15,1.26,.19,.26,.89,.37,1.24,.24,.62-.24,.85-.79,.38-1.42Z"/><path class="d" d="M40.54,34.52c-.62,.42-.65,.93-.21,1.5,.45,.58,1.03,.72,1.49,.16,.24-.3,.3-.94,.15-1.31-.25-.61-.8-.87-1.44-.35Z"/><path class="d" d="M46.2,3.01c-.39-.55-.91-.91-1.45-.31-.27,.3-.43,.92-.31,1.28,.2,.6,.75,.93,1.43,.51,.61-.37,.79-.86,.33-1.48Z"/><path class="d" d="M38.59,45c.18,.88,.15,1.39,.38,1.73,.47,.7,1.13,.43,1.48-.09,.22-.32,.24-1.12,.02-1.3-.34-.28-.96-.21-1.87-.35Z"/><path class="d" d="M44.77,80.16c1,0,1.56,.13,1.98-.05,.68-.28,.72-.87,.28-1.46-.4-.54-.92-.89-1.47-.33-.33,.33-.41,.9-.79,1.84Z"/><path class="d" d="M38.09,66.33c-.8,0-1.31-.13-1.67,.04-.67,.31-.73,.88-.27,1.48,.47,.61,1.05,.68,1.51,.12,.26-.31,.24-.85,.43-1.64Z"/><path class="d" d="M41.64,24.07c.01,.27-.09,.77,.08,1.15,.28,.59,.85,.99,1.42,.36,.26-.29,.38-.94,.24-1.31-.24-.64-.82-.84-1.74-.2Z"/><path class="d" d="M35.31,87.59c-.82,.01-1.33-.12-1.68,.05-.73,.35-.55,.91-.12,1.45,.41,.49,.89,.6,1.29,.1,.25-.32,.27-.81,.51-1.6Z"/><path class="d" d="M31.77,97.94c.13,.87,.08,1.35,.27,1.7,.38,.7,1.04,.59,1.42,.06,.2-.28,.14-.97-.08-1.27-.2-.27-.77-.26-1.61-.5Z"/><path class="d" d="M30.09,45.83c-.11-.94-.06-1.42-.24-1.79-.28-.56-.77-.61-1.3-.22-.57,.41-.53,.9-.09,1.3,.3,.27,.77,.35,1.63,.71Z"/><path class="d" d="M32.34,13.71c.79-.09,1.28-.02,1.63-.22,.55-.3,.51-.81,.14-1.31-.46-.61-1.02-.67-1.46-.12-.24,.3-.17,.84-.3,1.64Z"/><path class="d" d="M37.92,55.58c-.92,.81-.57,1.3-.17,1.77,.43,.51,.99,.48,1.29-.02,.21-.34,.26-1.03,.05-1.29-.27-.32-.88-.37-1.17-.47Z"/><path class="d" d="M32.43,108.66c-.89,.21-1.37,.22-1.73,.43-.58,.34-.47,.84-.08,1.3,.46,.54,.97,.4,1.31-.04,.24-.32,.25-.81,.5-1.69Z"/><path class="d" d="M46.76,69.25c.45,.58,.94,.63,1.51,.16,.58-.49,.59-1.08,.05-1.49-.31-.23-.95-.29-1.32-.13-.67,.29-.69,.88-.24,1.46Z"/><path class="d" d="M31.02,22.18c.11,.95,.04,1.44,.23,1.79,.35,.62,.94,.47,1.29,.01,.2-.26,.28-.88,.11-1.1-.23-.29-.75-.35-1.63-.7Z"/><path class="d" d="M21.92,10.3c.06,.78-.04,1.31,.18,1.61,.16,.22,.79,.31,1.1,.18,.62-.25,.64-.82,.17-1.25-.26-.23-.69-.27-1.44-.54Z"/><path class="d" d="M19.31,31.61c-.05,.62-.23,1.1-.07,1.33,.18,.25,.75,.47,1.03,.37,.53-.19,.82-.71,.32-1.21-.24-.24-.69-.28-1.28-.49Z"/><path class="d" d="M27.03,53.93c-.04,.92-.2,1.42-.05,1.79,.25,.6,.83,.69,1.26,.2,.23-.26,.42-.85,.29-1.08-.19-.32-.71-.45-1.51-.91Z"/><path class="d" d="M17.8,42.09c.01,.78-.12,1.3,.07,1.62,.14,.23,.77,.37,1.08,.26,.6-.22,.73-.76,.25-1.24-.25-.25-.68-.32-1.41-.64Z"/><path class="d" d="M25.33,64.72c.16,.94,.12,1.44,.33,1.79,.36,.61,.97,.45,1.3,0,.19-.27,.23-.91,.04-1.13-.24-.29-.78-.33-1.67-.65Z"/><path class="d" d="M44.47,99.47c-.83,.12-1.33,.07-1.69,.27-.73,.41-.52,1.07,0,1.43,.29,.2,.99,.16,1.27-.06,.27-.22,.23-.82,.41-1.63Z"/><path class="d" d="M23.88,75.33c.25,.91,.26,1.43,.52,1.7,.19,.2,.8,.24,1.08,.09,.55-.29,.6-.87,.11-1.26-.31-.25-.8-.27-1.71-.53Z"/><path class="d" d="M22.64,86.11c.12,.75,.06,1.29,.3,1.57,.17,.2,.81,.19,1.13,.03,.64-.31,.56-.89,.08-1.27-.27-.21-.73-.18-1.51-.33Z"/><path class="d" d="M13.59,74.19c.06,.66-.04,1.19,.16,1.38,.23,.21,.74,.1,1.13,.12,.02-.39,.19-.87,.02-1.13-.15-.23-.68-.21-1.32-.37Z"/><path class="d" d="M20.32,20.81c.16,.97,.11,1.51,.35,1.8,.16,.2,.85,.21,1.09,.03,.23-.17,.35-.85,.2-1.06-.22-.3-.74-.38-1.64-.77Z"/><path class="d" d="M16.13,52.65c.16,.97,.11,1.51,.35,1.8,.16,.2,.85,.21,1.09,.03,.23-.17,.35-.85,.2-1.06-.22-.3-.74-.38-1.64-.77Z"/><path class="d" d="M21.63,107.56c-.68,.05-1.22-.06-1.41,.15-.19,.21-.11,.79,.05,1.11,.08,.15,.76,.22,.9,.07,.24-.25,.26-.7,.46-1.33Z"/><path class="d" d="M21.33,96.86c.02,.61-.09,1.05,.07,1.36,.29,.58,.9,.66,1.26,.15,.21-.3,.16-.93-.02-1.28-.1-.2-.71-.14-1.31-.22Z"/><path class="d" d="M14.92,65.22c.66-.12,1.12-.09,1.36-.29,.17-.15,.19-.84,.06-.91-.3-.18-.83-.28-1.09-.13-.22,.13-.19,.67-.33,1.34Z"/><path class="d" d="M12.76,9.41c-.49,0-.93-.09-.99,.02-.14,.27-.18,.65-.11,.95,.03,.1,.64,.22,.74,.11,.19-.21,.21-.58,.35-1.08Z"/><path class="d" d="M10.76,95.71c.18,.52,.22,.89,.42,1.09,.12,.12,.5-.01,.77-.03-.04-.32,0-.7-.15-.95-.08-.13-.5-.07-1.03-.11Z"/><path class="d" d="M9.6,106.11c-.01,.56-.02,.88-.02,1.21,.33,0,.7,.08,.99-.05,.13-.06,.23-.62,.12-.74-.19-.2-.56-.24-1.08-.42Z"/><path class="d" d="M8.69,30.54c.09,.56,.14,.87,.19,1.19,.33-.05,.7-.04,.97-.2,.12-.08,.13-.65,0-.74-.24-.17-.61-.15-1.16-.26Z"/><path class="d" d="M7.49,40.96c-.09,.52-.27,.91-.16,1.03,.21,.21,.59,.27,.89,.38,.09-.25,.32-.6,.23-.74-.15-.25-.51-.37-.97-.67Z"/><path class="d" d="M11.34,20.23c-.44-.09-.75-.24-.93-.15-.19,.1-.25,.44-.36,.67,.29,.11,.58,.3,.88,.3,.11,0,.22-.42,.41-.82Z"/><path class="d" d="M1.11,8.45c.06,.19,.09,.38,.19,.52,.03,.05,.25-.03,.38-.05-.03-.18-.04-.37-.1-.54,0-.02-.25,.03-.47,.07Z"/><path class="d" d="M13.66,85.27c-.45-.04-.88-.17-.93-.07-.15,.25-.14,.6-.2,.9,.26,.02,.59,.15,.77,.04,.17-.1,.2-.45,.36-.87Z"/><path class="d" d="M5.54,62.69c-.2,.04-.4,.05-.55,.13-.06,.03,0,.26,0,.39,.19,0,.38,0,.56-.04,.03,0,0-.25,0-.48Z"/><path class="d" d="M2.01,84.62c.18-.07,.37-.12,.5-.23,.04-.03-.06-.36-.1-.36-.18,0-.36,.07-.54,.11,.04,.13,.07,.26,.13,.48Z"/><path class="d" d="M6.05,51.69c-.08,.45-.23,.76-.14,.93,.1,.19,.44,.26,.67,.38,.11-.29,.29-.59,.28-.88,0-.12-.42-.23-.82-.43Z"/><path class="d" d="M.87,95.19c.18-.08,.37-.12,.51-.23,.04-.03-.06-.36-.09-.36-.18,0-.36,.07-.55,.11,.04,.13,.07,.26,.13,.48Z"/><path class="d" d="M3.94,73.57c-.1-.04-.21-.08-.31-.1-.03,0-.12,.12-.11,.13,.06,.09,.14,.17,.21,.25,.07-.09,.14-.19,.21-.28Z"/><path class="d" d="M.17,18.88c-.06,.1-.11,.2-.17,.3,.11,.02,.22,.06,.33,.06,.03,0,.09-.14,.08-.15-.07-.08-.16-.14-.24-.2Z"/></g></g></svg>