<?xml version="1.0" encoding="UTF-8"?><svg xmlns="http://www.w3.org/2000/svg" viewBox="0 0 1860.25 1141.37"><defs><style>.d{fill:#f7f7f7;}</style></defs><g id="a"/><g id="b"><g id="c"><g><path class="d" d="M250.49,284.97l5.14,12.94c4.66,11.74,6.12,22.75,4.37,33.02-1.75,10.27-6.98,22.26-15.68,35.99-7.74,11.95-12.83,21.68-15.27,29.17-2.44,7.49-2.13,15.07,.91,22.74,2.95,7.43,8.05,12.06,15.3,13.9,7.25,1.84,15.91,.76,25.98-3.24,10.07-4,19.4-9.51,27.99-16.53,8.59-7.02,16.99-15.22,25.21-24.58l34.34,30.91c-9.17,11.14-19.79,21.45-31.83,30.96-12.05,9.5-26.21,17.49-42.52,23.96-24.93,9.9-46.66,11.59-65.21,5.08-18.54-6.52-31.48-19-38.81-37.45-3.9-9.83-5.72-18.96-5.46-27.39,.26-8.43,2.27-17,6.03-25.7,3.76-8.71,8.98-18.28,15.66-28.7,5.1-8.13,8.81-14.67,11.15-19.62,2.34-4.95,3.47-9.43,3.41-13.43-.06-4-1.05-8.4-2.95-13.19l-4.14-10.43,46.38-18.42Zm-18.09-62.33c4.38,11.02,4.45,19.94,.22,26.76-4.23,6.81-10.66,11.94-19.29,15.36-8.39,3.33-16.46,3.97-24.22,1.92-7.75-2.06-13.82-8.6-18.2-19.62-4.19-10.55-4.21-19.35-.08-26.4,4.14-7.06,10.4-12.25,18.79-15.58,8.63-3.43,16.87-4,24.72-1.7,7.85,2.29,13.87,8.71,18.06,19.26Z"/><path class="d" d="M818.49,873.97l5.14,12.94c4.66,11.74,6.12,22.75,4.37,33.02-1.75,10.27-6.98,22.26-15.68,35.99-7.74,11.95-12.83,21.68-15.27,29.17-2.44,7.49-2.13,15.07,.91,22.74,2.95,7.43,8.05,12.06,15.3,13.9,7.25,1.84,15.91,.76,25.98-3.24s19.4-9.51,27.99-16.53c8.59-7.02,16.99-15.22,25.21-24.58l34.34,30.91c-9.17,11.14-19.79,21.45-31.83,30.96-12.05,9.5-26.21,17.49-42.52,23.96-24.93,9.9-46.66,11.59-65.21,5.08-18.54-6.52-31.48-19-38.81-37.45-3.9-9.83-5.72-18.96-5.46-27.39,.26-8.43,2.27-17,6.03-25.7,3.76-8.71,8.98-18.28,15.66-28.7,5.1-8.13,8.81-14.67,11.15-19.62,2.34-4.95,3.47-9.43,3.41-13.43-.06-4-1.05-8.4-2.95-13.19l-4.14-10.43,46.38-18.42Zm-18.09-62.33c4.38,11.02,4.45,19.94,.22,26.76-4.23,6.81-10.66,11.94-19.29,15.36-8.39,3.33-16.46,3.97-24.22,1.92-7.75-2.06-13.82-8.6-18.2-19.62-4.19-10.55-4.21-19.35-.08-26.4,4.14-7.06,10.4-12.25,18.79-15.58,8.63-3.43,16.87-4,24.72-1.7,7.85,2.29,13.87,8.71,18.06,19.26Z"/><path class="d" d="M122.38,982.63l-5.47-15.67c-4.96-14.21-6.14-27.39-3.54-39.53,2.6-12.14,9.43-26.15,20.48-42.05,9.82-13.84,16.37-25.15,19.64-33.95,3.28-8.79,3.3-17.83,.06-27.12-3.14-8.99-8.98-14.76-17.51-17.32-8.54-2.55-18.9-1.71-31.09,2.55-12.19,4.25-23.57,10.34-34.15,18.26-10.58,7.92-21,17.26-31.24,27.98L.25,817.27c11.48-12.79,24.64-24.54,39.45-35.24,14.82-10.7,32.09-19.49,51.82-26.38,30.17-10.53,56.13-11.44,77.88-2.76,21.74,8.69,36.51,24.2,44.31,46.54,4.15,11.9,5.85,22.86,5.12,32.87-.74,10.02-3.56,20.12-8.47,30.29-4.92,10.18-11.61,21.3-20.09,33.37-6.48,9.42-11.23,17.02-14.26,22.79-3.03,5.78-4.61,11.05-4.74,15.81-.13,4.77,.82,10.05,2.84,15.85l4.4,12.62-56.14,19.58Zm18.39,75.11c-4.65-13.34-4.29-23.96,1.09-31.87,5.38-7.89,13.29-13.67,23.74-17.31,10.15-3.54,19.79-3.89,28.92-1.06,9.12,2.84,16.02,10.93,20.67,24.28,4.45,12.77,4.04,23.25-1.24,31.43-5.28,8.19-13,14.06-23.15,17.6-10.45,3.64-20.29,3.9-29.51,.77-9.23-3.13-16.07-11.07-20.52-23.84Z"/><path class="d" d="M1731.38,235.63l-5.47-15.67c-4.96-14.21-6.14-27.39-3.54-39.53s9.43-26.15,20.48-42.05c9.82-13.84,16.37-25.15,19.64-33.95,3.28-8.79,3.3-17.83,.06-27.12-3.14-8.99-8.98-14.76-17.51-17.32-8.54-2.55-18.9-1.71-31.09,2.55-12.19,4.25-23.57,10.34-34.15,18.26-10.58,7.92-21,17.26-31.24,27.98l-39.31-38.52c11.48-12.79,24.64-24.54,39.45-35.24,14.82-10.7,32.09-19.49,51.82-26.38,30.17-10.53,56.13-11.44,77.88-2.76,21.74,8.69,36.51,24.2,44.31,46.54,4.15,11.9,5.85,22.86,5.12,32.87-.74,10.02-3.56,20.12-8.47,30.29-4.92,10.18-11.61,21.3-20.09,33.37-6.48,9.42-11.23,17.02-14.26,22.79-3.03,5.78-4.61,11.05-4.74,15.81-.13,4.77,.82,10.05,2.84,15.85l4.4,12.62-56.14,19.58Zm18.39,75.11c-4.65-13.34-4.29-23.96,1.09-31.87,5.38-7.89,13.29-13.67,23.74-17.31,10.15-3.54,19.79-3.89,28.92-1.06,9.12,2.84,16.02,10.93,20.67,24.28,4.45,12.77,4.04,23.25-1.24,31.43-5.28,8.19-13,14.06-23.15,17.6-10.45,3.64-20.29,3.9-29.51,.77-9.23-3.13-16.07-11.07-20.52-23.84Z"/><path class="d" d="M633.25,211.2l6.57-11.56c5.96-10.48,13.28-18.15,21.97-22.98,8.69-4.83,20.74-8.1,36.16-9.82,13.52-1.38,23.8-3.39,30.83-6.05,7.03-2.65,12.49-7.41,16.38-14.26,3.77-6.63,4.17-13.2,1.21-19.7-2.96-6.5-8.94-12.3-17.93-17.4-8.99-5.11-18.66-8.76-29.02-10.97-10.36-2.2-21.48-3.56-33.35-4.08l2.5-44.02c13.77,.18,27.79,1.92,42.06,5.21,14.27,3.29,28.67,9.07,43.23,17.34,22.26,12.64,36.5,27.82,42.73,45.51,6.22,17.69,4.66,34.78-4.7,51.26-4.99,8.78-10.7,15.58-17.12,20.42-6.43,4.84-14.01,8.46-22.74,10.87-8.73,2.4-18.97,4.23-30.72,5.48-9.1,1.06-16.19,2.2-21.27,3.42-5.08,1.22-9.09,3.05-12.03,5.48-2.94,2.43-5.63,5.79-8.06,10.07l-5.29,9.31-41.41-23.53Zm-35.59,50.69c5.59-9.84,12.19-15.22,19.79-16.15,7.6-.92,15.25,.81,22.96,5.19,7.49,4.26,12.78,9.88,15.89,16.88,3.1,7,1.85,15.43-3.74,25.27-5.35,9.42-11.89,14.69-19.61,15.83-7.72,1.13-15.33-.43-22.82-4.68-7.71-4.38-13.05-10.17-16.03-17.39-2.98-7.21-1.8-15.53,3.56-24.95Z"/><path class="d" d="M1211.12,209.26l-8.32,9.77c-7.55,8.86-15.88,14.8-25,17.8-9.12,3.01-21.14,3.92-36.06,2.76-13.07-1.15-23.18-1.1-30.33,.15-7.15,1.24-13.19,4.76-18.12,10.55-4.77,5.61-6.34,11.76-4.72,18.46,1.63,6.7,6.25,13.28,13.84,19.75,7.6,6.47,16.11,11.69,25.53,15.66,9.42,3.97,19.72,7.27,30.88,9.92l-10.35,41.29c-13.02-2.66-26-6.86-38.93-12.56-12.93-5.71-25.54-13.8-37.85-24.28-18.81-16.03-29.56-32.99-32.27-50.9-2.69-17.91,1.89-33.82,13.75-47.75,6.32-7.42,12.97-12.84,19.94-16.26,6.98-3.42,14.82-5.48,23.53-6.18,8.72-.7,18.75-.57,30.12,.37,8.82,.64,15.75,.85,20.78,.61,5.04-.23,9.18-1.24,12.4-3.02,3.23-1.77,6.39-4.47,9.47-8.09l6.7-7.87,35,29.82Zm42.94-41.62c-7.09,8.32-14.32,12.23-21.69,11.72-7.37-.5-14.32-3.53-20.83-9.08-6.33-5.39-10.33-11.69-12-18.89-1.67-7.2,1.04-14.96,8.13-23.28,6.78-7.96,13.94-11.77,21.46-11.45,7.53,.33,14.46,3.18,20.79,8.58,6.51,5.55,10.53,12.01,12.04,19.39,1.52,7.38-1.11,15.05-7.89,23.01Z"/><path class="d" d="M1400.12,995.26l-8.32,9.77c-7.55,8.86-15.88,14.8-25,17.8-9.12,3.01-21.14,3.92-36.06,2.76-13.07-1.15-23.18-1.1-30.33,.15-7.15,1.24-13.19,4.76-18.12,10.55-4.77,5.61-6.34,11.76-4.72,18.46,1.63,6.7,6.25,13.28,13.84,19.75,7.6,6.47,16.11,11.69,25.53,15.66,9.42,3.97,19.72,7.27,30.88,9.92l-10.35,41.29c-13.02-2.66-26-6.86-38.93-12.56-12.93-5.71-25.54-13.8-37.85-24.28-18.81-16.03-29.56-32.99-32.27-50.9-2.69-17.91,1.89-33.82,13.75-47.75,6.32-7.42,12.97-12.84,19.94-16.26,6.98-3.42,14.82-5.48,23.53-6.18,8.72-.7,18.75-.57,30.12,.37,8.82,.64,15.75,.85,20.78,.61,5.04-.23,9.18-1.24,12.4-3.02,3.23-1.77,6.39-4.47,9.47-8.09l6.7-7.87,35,29.82Zm42.94-41.62c-7.09,8.32-14.32,12.23-21.69,11.72-7.37-.5-14.32-3.53-20.83-9.08-6.33-5.39-10.33-11.69-12-18.89-1.67-7.2,1.04-14.96,8.13-23.28,6.78-7.96,13.94-11.77,21.46-11.45,7.53,.33,14.46,3.18,20.79,8.58,6.51,5.55,10.53,12.01,12.04,19.39,1.52,7.38-1.11,15.05-7.89,23.01Z"/><path class="d" d="M1541.05,815.13c4.55-11.48,10.85-18.3,18.93-20.45,8.07-2.15,16.6-1.44,25.59,2.12,8.74,3.46,15.31,8.74,19.73,15.83,4.41,7.09,4.35,16.38-.2,27.87-4.35,10.99-10.61,17.68-18.78,20.08-8.17,2.4-16.63,1.87-25.37-1.59-8.99-3.56-15.65-9.01-19.96-16.35-4.32-7.34-4.3-16.5,.05-27.49Zm30.76-60.18l5.34-13.48c4.84-12.23,11.59-21.62,20.25-28.16,8.65-6.54,21.18-11.91,37.57-16.11,14.4-3.54,25.2-7.28,32.39-11.22,7.19-3.94,12.37-9.9,15.53-17.9,3.06-7.74,2.5-14.89-1.68-21.46-4.19-6.57-11.53-11.93-22.01-16.08-10.49-4.15-21.5-6.63-33.02-7.44-11.53-.81-23.75-.59-36.65,.65l-3.99-47.94c14.9-1.9,30.31-2.15,46.23-.76,15.92,1.39,32.36,5.44,49.34,12.17,25.97,10.28,43.66,24.51,53.08,42.68,9.41,18.17,10.32,36.87,2.71,56.1-4.05,10.24-9.19,18.46-15.4,24.67-6.21,6.21-13.85,11.27-22.91,15.19-9.07,3.92-19.85,7.46-32.36,10.59-9.67,2.53-17.16,4.84-22.46,6.92-5.31,2.09-9.37,4.67-12.17,7.75-2.81,3.08-5.2,7.11-7.18,12.11l-4.3,10.86-48.32-19.13Z"/><path class="d" d="M1313.01,839.4c-2.58-4.25-3.24-7.93-1.96-11.05,1.27-3.11,3.57-5.68,6.9-7.7,3.23-1.96,6.53-2.79,9.88-2.49,3.35,.31,6.32,2.59,8.9,6.84,2.47,4.07,3.1,7.7,1.88,10.91-1.22,3.21-3.44,5.79-6.68,7.75-3.33,2.02-6.69,2.83-10.1,2.43-3.41-.4-6.34-2.63-8.81-6.7Zm-11.84-24.5l-3.03-4.99c-2.75-4.53-4.12-8.98-4.12-13.34,0-4.37,1.33-9.69,3.96-15.97,2.36-5.48,3.79-9.86,4.27-13.12,.48-3.26-.17-6.38-1.97-9.34-1.74-2.86-4.17-4.42-7.3-4.68-3.13-.25-6.63,.8-10.51,3.16-3.88,2.36-7.35,5.29-10.41,8.79-3.06,3.5-5.96,7.48-8.7,11.92l-16.36-10.37c3.01-5.24,6.68-10.25,10.99-15.02,4.32-4.77,9.61-9.06,15.9-12.88,9.61-5.84,18.48-8.06,26.6-6.67,8.12,1.4,14.34,5.65,18.66,12.77,2.3,3.79,3.69,7.44,4.18,10.94,.48,3.5,.25,7.19-.69,11.05-.94,3.86-2.43,8.18-4.47,12.96-1.54,3.72-2.62,6.68-3.24,8.89-.62,2.21-.78,4.14-.47,5.79,.31,1.65,1.02,3.4,2.14,5.25l2.44,4.02-17.88,10.86Z"/><path class="d" d="M1596.37,1081.41c.69-4.92,2.52-8.19,5.48-9.79,2.95-1.6,6.36-2.13,10.22-1.59,3.75,.53,6.82,1.97,9.22,4.33,2.4,2.36,3.25,6,2.56,10.93-.66,4.71-2.48,7.92-5.45,9.63-2.97,1.71-6.33,2.3-10.08,1.77-3.85-.54-6.97-2.05-9.36-4.51-2.38-2.47-3.24-6.05-2.58-10.76Zm6.35-26.46l.81-5.78c.74-5.25,2.49-9.56,5.26-12.94,2.77-3.38,7.16-6.66,13.18-9.85,5.3-2.75,9.17-5.23,11.62-7.45,2.44-2.22,3.9-5.04,4.39-8.47,.47-3.32-.43-6.07-2.69-8.24-2.26-2.17-5.64-3.58-10.14-4.21-4.5-.63-9.04-.56-13.63,.21-4.59,.77-9.35,2.02-14.28,3.72l-6.09-18.39c5.65-2.15,11.66-3.71,18.02-4.67,6.36-.96,13.18-.93,20.46,.1,11.14,1.57,19.4,5.46,24.81,11.69,5.4,6.22,7.52,13.46,6.36,21.7-.62,4.39-1.85,8.09-3.69,11.11-1.85,3.02-4.36,5.72-7.53,8.11-3.18,2.39-7.06,4.79-11.66,7.2-3.54,1.9-6.26,3.52-8.13,4.83-1.88,1.32-3.22,2.71-4.03,4.18-.81,1.47-1.36,3.28-1.66,5.42l-.66,4.66-20.72-2.92Z"/><path class="d" d="M505.77,1099.89c1.87-6.37,4.91-10.33,9.12-11.88,4.21-1.55,8.81-1.59,13.8-.13,4.85,1.42,8.63,3.92,11.34,7.5,2.71,3.58,3.13,8.55,1.27,14.92-1.79,6.1-4.81,9.98-9.06,11.67-4.26,1.69-8.81,1.82-13.65,.4-4.99-1.46-8.82-4.05-11.49-7.77-2.67-3.72-3.11-8.62-1.33-14.72Zm13.5-33.72l2.19-7.48c1.99-6.79,5.14-12.14,9.45-16.07,4.31-3.93,10.75-7.41,19.31-10.47,7.53-2.6,13.13-5.14,16.78-7.6,3.65-2.46,6.13-5.91,7.43-10.34,1.26-4.29,.6-8.09-1.96-11.4-2.57-3.31-6.76-5.82-12.57-7.52-5.82-1.71-11.83-2.49-18.04-2.36-6.21,.14-12.74,.86-19.58,2.15l-4.49-25.46c7.88-1.75,16.12-2.64,24.7-2.68,8.59-.04,17.59,1.32,27.01,4.08,14.4,4.22,24.57,10.97,30.51,20.23,5.93,9.26,7.34,19.22,4.21,29.89-1.67,5.68-4.01,10.33-7.03,13.96-3.02,3.63-6.86,6.71-11.51,9.26-4.66,2.55-10.26,4.97-16.79,7.26-5.05,1.83-8.94,3.43-11.68,4.81-2.74,1.38-4.78,2.96-6.13,4.75-1.35,1.79-2.43,4.06-3.24,6.83l-1.77,6.02-26.8-7.86Z"/><path class="d" d="M1110.02,876.36c-1.08,3.97-2.92,6.45-5.51,7.46-2.59,1.01-5.44,1.09-8.54,.24-3.02-.82-5.39-2.33-7.11-4.51-1.72-2.18-2.04-5.26-.96-9.23,1.04-3.8,2.86-6.24,5.48-7.33,2.62-1.09,5.43-1.23,8.45-.41,3.1,.85,5.51,2.41,7.2,4.68,1.7,2.27,2.03,5.3,.99,9.1Zm-7.96,21.04l-1.27,4.66c-1.15,4.23-3.04,7.58-5.66,10.06-2.62,2.48-6.57,4.72-11.84,6.71-4.63,1.7-8.07,3.34-10.3,4.9-2.23,1.57-3.73,3.73-4.48,6.49-.73,2.67-.28,5.02,1.35,7.04,1.63,2.02,4.25,3.52,7.87,4.51,3.62,.99,7.36,1.4,11.2,1.25,3.84-.16,7.88-.68,12.1-1.56l3.08,15.71c-4.86,1.18-9.95,1.83-15.27,1.95-5.32,.12-10.91-.61-16.77-2.21-8.97-2.45-15.35-6.5-19.13-12.17-3.78-5.67-4.77-11.82-2.96-18.46,.97-3.54,2.36-6.44,4.19-8.73,1.83-2.28,4.17-4.24,7.02-5.87,2.86-1.63,6.29-3.2,10.32-4.69,3.11-1.19,5.5-2.23,7.17-3.12,1.68-.89,2.93-1.89,3.74-3.01,.82-1.12,1.46-2.54,1.93-4.27l1.02-3.75,16.69,4.55Z"/><path class="d" d="M1859.35,930.55c-1.65,6.05-4.45,9.85-8.41,11.39-3.95,1.54-8.3,1.66-13.04,.37-4.61-1.26-8.22-3.55-10.85-6.89-2.62-3.33-3.11-8.03-1.46-14.08,1.58-5.79,4.37-9.52,8.36-11.19,3.99-1.67,8.29-1.88,12.9-.62,4.74,1.29,8.41,3.67,11,7.14,2.59,3.47,3.1,8.09,1.52,13.89Zm-12.16,32.12l-1.94,7.11c-1.76,6.45-4.64,11.57-8.65,15.36-4,3.79-10.03,7.2-18.07,10.24-7.07,2.6-12.31,5.09-15.73,7.48-3.41,2.39-5.69,5.69-6.84,9.91-1.11,4.08-.43,7.66,2.05,10.74,2.48,3.08,6.49,5.38,12.02,6.89,5.53,1.51,11.23,2.14,17.09,1.9,5.87-.24,12.02-1.04,18.47-2.39l4.7,23.98c-7.42,1.8-15.19,2.79-23.3,2.98-8.11,.19-16.65-.93-25.6-3.38-13.69-3.74-23.42-9.93-29.2-18.57-5.77-8.65-7.28-18.04-4.51-28.18,1.47-5.4,3.61-9.84,6.39-13.32,2.79-3.48,6.36-6.47,10.72-8.96,4.36-2.49,9.61-4.88,15.74-7.16,4.74-1.82,8.39-3.41,10.95-4.76,2.56-1.35,4.47-2.89,5.71-4.6,1.25-1.71,2.23-3.88,2.94-6.52l1.56-5.73,25.47,6.95Z"/><path class="d" d="M102.01,654.4c-2.58-4.25-3.24-7.93-1.96-11.05,1.27-3.11,3.57-5.68,6.9-7.7,3.23-1.96,6.53-2.79,9.88-2.49,3.35,.31,6.32,2.59,8.9,6.84,2.47,4.07,3.1,7.7,1.88,10.91-1.22,3.21-3.44,5.79-6.68,7.75-3.33,2.02-6.69,2.83-10.1,2.43-3.41-.4-6.34-2.63-8.81-6.7Zm-11.84-24.5l-3.03-4.99c-2.75-4.53-4.12-8.98-4.12-13.34,0-4.37,1.33-9.69,3.96-15.97,2.36-5.48,3.79-9.86,4.27-13.12,.48-3.26-.17-6.38-1.97-9.34-1.74-2.86-4.17-4.42-7.3-4.68-3.13-.25-6.63,.8-10.51,3.16-3.88,2.36-7.35,5.29-10.41,8.79-3.06,3.5-5.96,7.48-8.7,11.92l-16.36-10.37c3.01-5.24,6.68-10.25,10.99-15.02,4.32-4.77,9.61-9.06,15.9-12.88,9.61-5.84,18.48-8.06,26.6-6.67,8.12,1.4,14.34,5.65,18.66,12.77,2.3,3.79,3.69,7.44,4.18,10.94,.48,3.5,.25,7.19-.69,11.05-.94,3.86-2.43,8.18-4.47,12.96-1.54,3.72-2.62,6.68-3.24,8.89-.62,2.21-.78,4.14-.47,5.79,.31,1.65,1.02,3.4,2.14,5.25l2.44,4.02-17.88,10.86Z"/><path class="d" d="M66.01,141.4c-2.58-4.25-3.24-7.93-1.96-11.05,1.27-3.11,3.57-5.68,6.9-7.7,3.23-1.96,6.53-2.79,9.88-2.49,3.35,.31,6.32,2.59,8.9,6.84,2.47,4.07,3.1,7.7,1.88,10.91-1.22,3.21-3.44,5.79-6.68,7.75-3.33,2.02-6.69,2.83-10.1,2.43-3.41-.4-6.34-2.63-8.81-6.7Zm-11.84-24.5l-3.03-4.99c-2.75-4.53-4.12-8.98-4.12-13.34,0-4.37,1.33-9.69,3.96-15.97,2.36-5.48,3.79-9.86,4.27-13.12,.48-3.26-.17-6.38-1.97-9.34-1.74-2.86-4.17-4.42-7.3-4.68-3.13-.25-6.63,.8-10.51,3.16-3.88,2.36-7.35,5.29-10.41,8.79-3.06,3.5-5.96,7.48-8.7,11.92L0,68.96c3.01-5.24,6.68-10.25,10.99-15.02,4.32-4.77,9.61-9.06,15.9-12.88,9.61-5.84,18.48-8.06,26.6-6.67,8.12,1.4,14.34,5.65,18.66,12.77,2.3,3.79,3.69,7.44,4.18,10.94,.48,3.5,.25,7.19-.69,11.05-.94,3.86-2.43,8.18-4.47,12.96-1.54,3.72-2.62,6.68-3.24,8.89-.62,2.21-.78,4.14-.47,5.79,.31,1.65,1.02,3.4,2.14,5.25l2.44,4.02-17.88,10.86Z"/><path class="d" d="M1486.01,386.4c-2.58-4.25-3.24-7.93-1.96-11.05,1.27-3.11,3.57-5.68,6.9-7.7,3.23-1.96,6.53-2.79,9.88-2.49,3.35,.31,6.32,2.59,8.9,6.84,2.47,4.07,3.1,7.7,1.88,10.91-1.22,3.21-3.44,5.79-6.68,7.75-3.33,2.02-6.69,2.83-10.1,2.43-3.41-.4-6.34-2.63-8.81-6.7Zm-11.84-24.5l-3.03-4.99c-2.75-4.53-4.12-8.98-4.12-13.34,0-4.37,1.33-9.69,3.96-15.97,2.36-5.48,3.79-9.86,4.27-13.12,.48-3.26-.17-6.38-1.97-9.34-1.74-2.86-4.17-4.42-7.3-4.68-3.13-.25-6.63,.8-10.51,3.16-3.88,2.36-7.35,5.29-10.41,8.79-3.06,3.5-5.96,7.48-8.7,11.92l-16.36-10.37c3.01-5.24,6.68-10.25,10.99-15.02,4.32-4.77,9.61-9.06,15.9-12.88,9.61-5.84,18.48-8.06,26.6-6.67,8.12,1.4,14.34,5.65,18.66,12.77,2.3,3.79,3.69,7.44,4.18,10.94,.48,3.5,.25,7.19-.69,11.05-.94,3.86-2.43,8.18-4.47,12.96-1.54,3.72-2.62,6.68-3.24,8.89-.62,2.21-.78,4.14-.47,5.79,.31,1.65,1.02,3.4,2.14,5.25l2.44,4.02-17.88,10.86Z"/><path class="d" d="M891.97,390.05c-3.1-3.89-4.22-7.46-3.35-10.71,.87-3.25,2.82-6.09,5.87-8.51,2.96-2.36,6.12-3.6,9.48-3.72,3.36-.12,6.59,1.77,9.69,5.65,2.97,3.72,4.05,7.25,3.25,10.58-.8,3.33-2.68,6.18-5.64,8.54-3.04,2.43-6.28,3.66-9.71,3.69-3.43,.04-6.62-1.8-9.59-5.53Zm-14.85-22.8l-3.64-4.57c-3.3-4.14-5.23-8.38-5.78-12.71-.55-4.33,.09-9.78,1.9-16.35,1.65-5.74,2.51-10.26,2.57-13.56,.07-3.3-.98-6.3-3.14-9.01-2.09-2.62-4.7-3.86-7.83-3.71-3.13,.15-6.47,1.63-10.03,4.47-3.55,2.83-6.62,6.18-9.21,10.04-2.59,3.86-4.96,8.18-7.12,12.93l-17.54-8.21c2.32-5.58,5.32-11.02,9-16.3,3.68-5.28,8.39-10.21,14.14-14.79,8.79-7.01,17.31-10.34,25.54-9.99,8.23,.35,14.94,3.79,20.13,10.3,2.76,3.47,4.61,6.91,5.53,10.32,.92,3.41,1.16,7.1,.72,11.05-.45,3.95-1.37,8.43-2.79,13.42-1.05,3.88-1.75,6.96-2.08,9.23-.33,2.27-.24,4.21,.27,5.8,.51,1.6,1.44,3.24,2.79,4.93l2.93,3.68-16.36,13.04Z"/><path class="d" d="M379.71,911.22c4.2-2.66,7.87-3.38,11.01-2.16,3.13,1.21,5.74,3.47,7.82,6.76,2.02,3.2,2.91,6.47,2.67,9.83-.25,3.35-2.47,6.36-6.67,9.02-4.02,2.54-7.65,3.23-10.87,2.08-3.23-1.16-5.85-3.34-7.87-6.53-2.08-3.29-2.95-6.64-2.62-10.05,.34-3.41,2.51-6.39,6.54-8.93Zm24.28-12.29l4.94-3.12c4.48-2.83,8.9-4.29,13.27-4.36,4.37-.08,9.71,1.15,16.04,3.67,5.52,2.26,9.92,3.61,13.2,4.03,3.27,.42,6.37-.29,9.3-2.14,2.83-1.79,4.35-4.25,4.54-7.38,.19-3.13-.92-6.61-3.35-10.45-2.43-3.84-5.42-7.26-8.98-10.25-3.56-3-7.59-5.82-12.08-8.48l10.07-16.54c5.3,2.92,10.37,6.49,15.22,10.72,4.85,4.23,9.24,9.45,13.17,15.66,6.01,9.5,8.39,18.33,7.15,26.47-1.25,8.14-5.39,14.44-12.42,18.89-3.75,2.37-7.37,3.83-10.86,4.37-3.49,.55-7.18,.38-11.06-.49-3.88-.87-8.23-2.28-13.04-4.23-3.75-1.47-6.73-2.49-8.95-3.07-2.22-.58-4.16-.7-5.8-.36-1.64,.34-3.38,1.08-5.21,2.24l-3.98,2.51-11.18-17.68Z"/><path class="d" d="M379.71,169.22c4.2-2.66,7.87-3.38,11.01-2.16,3.13,1.21,5.74,3.47,7.82,6.76,2.02,3.2,2.91,6.47,2.67,9.83-.25,3.35-2.47,6.36-6.67,9.02-4.02,2.54-7.65,3.23-10.87,2.08-3.23-1.16-5.85-3.34-7.87-6.53-2.08-3.29-2.95-6.64-2.62-10.05,.34-3.41,2.51-6.39,6.54-8.93Zm24.28-12.29l4.94-3.12c4.48-2.83,8.9-4.29,13.27-4.36,4.37-.08,9.71,1.15,16.04,3.67,5.52,2.26,9.92,3.61,13.2,4.03,3.27,.42,6.37-.29,9.3-2.14,2.83-1.79,4.35-4.25,4.54-7.38,.19-3.13-.92-6.61-3.35-10.45-2.43-3.84-5.42-7.26-8.98-10.25-3.56-3-7.59-5.82-12.08-8.48l10.07-16.54c5.3,2.92,10.37,6.49,15.22,10.72,4.85,4.23,9.24,9.45,13.17,15.66,6.01,9.5,8.39,18.33,7.15,26.47-1.25,8.14-5.39,14.44-12.42,18.89-3.75,2.37-7.37,3.83-10.86,4.37-3.49,.55-7.18,.38-11.06-.49-3.88-.87-8.23-2.28-13.04-4.23-3.75-1.47-6.73-2.49-8.95-3.07-2.22-.58-4.16-.7-5.8-.36-1.64,.34-3.38,1.08-5.21,2.24l-3.98,2.51-11.18-17.68Z"/></g></g></g></svg>