<?xml version="1.0" encoding="UTF-8"?><svg xmlns="http://www.w3.org/2000/svg" xmlns:xlink="http://www.w3.org/1999/xlink" viewBox="0 0 1291.95 358.92"><defs><style>.e{fill:#fff;}.f{fill:#003879;}.g{fill:#0178b2;}.h{fill:url(#d);}.i{fill:#134c8c;}</style><linearGradient id="d" x1="424.64" y1="196.16" x2="823.6" y2="291.8" gradientTransform="matrix(1, 0, 0, 1, 0, 0)" gradientUnits="userSpaceOnUse"><stop offset="0" stop-color="#003879"/><stop offset=".48" stop-color="#0178b2"/><stop offset=".6" stop-color="#006da9"/><stop offset=".82" stop-color="#005290"/><stop offset=".99" stop-color="#003879"/></linearGradient></defs><g id="a"/><g id="b"><g id="c"><g><g><path class="f" d="M487.06,150.32h-20.02v-40.84h-37.52v40.84h-20.02V55.65h20.02v37.12h37.52V55.65h20.02v94.66Z"/><path class="f" d="M539.03,76.47c9.72,0,17.17,2.1,22.34,6.3,5.17,4.2,7.76,10.63,7.76,19.29v48.26h-13.79l-3.85-9.81h-.53c-3.1,3.89-6.36,6.72-9.81,8.49-3.45,1.77-8.18,2.65-14.19,2.65-6.45,0-11.8-1.86-16.04-5.57-4.24-3.71-6.36-9.5-6.36-17.37s2.69-13.35,8.09-16.97c5.39-3.62,13.48-5.66,24.26-6.1l12.6-.4v-3.18c0-3.8-.99-6.58-2.98-8.35-1.99-1.77-4.75-2.65-8.29-2.65s-6.98,.51-10.34,1.52c-3.36,1.02-6.72,2.28-10.08,3.78l-6.5-13.39c3.8-1.94,8.09-3.51,12.86-4.71,4.77-1.19,9.72-1.79,14.85-1.79Zm10.47,40.3l-7.69,.27c-6.36,.18-10.78,1.33-13.26,3.45-2.48,2.12-3.71,4.9-3.71,8.35,0,3.01,.88,5.15,2.65,6.43,1.77,1.28,4.06,1.92,6.89,1.92,4.24,0,7.82-1.26,10.74-3.78s4.38-6.08,4.38-10.67v-5.97Z"/><path class="f" d="M619.24,76.6c9.99,0,17.9,2.85,23.73,8.55,5.83,5.7,8.75,13.81,8.75,24.33v9.55h-46.67c.18,5.57,1.83,9.94,4.97,13.13,3.14,3.18,7.49,4.77,13.06,4.77,4.59,0,8.82-.46,12.66-1.39,3.84-.93,7.8-2.37,11.87-4.31v15.25c-3.63,1.77-7.38,3.07-11.27,3.91-3.89,.84-8.62,1.26-14.19,1.26-7.25,0-13.66-1.35-19.22-4.04-5.57-2.69-9.94-6.76-13.13-12.2-3.18-5.44-4.77-12.35-4.77-20.75s1.44-15.42,4.31-21.08c2.87-5.66,6.87-9.9,12-12.73,5.13-2.83,11.09-4.24,17.9-4.24Zm.13,14.05c-3.89,0-7.07,1.24-9.55,3.71-2.48,2.48-3.93,6.32-4.38,11.54h27.71c-.09-4.33-1.26-7.96-3.51-10.87-2.25-2.92-5.68-4.38-10.28-4.38Z"/><path class="f" d="M752.75,76.6c8.22,0,14.43,2.1,18.63,6.3,4.2,4.2,6.3,10.94,6.3,20.22v47.2h-19.76v-42.29c0-10.43-3.63-15.64-10.87-15.64-5.22,0-8.93,1.86-11.14,5.57-2.21,3.71-3.31,9.06-3.31,16.04v36.33h-19.75v-42.29c0-10.43-3.63-15.64-10.87-15.64-5.48,0-9.26,2.06-11.34,6.16-2.08,4.11-3.12,10.01-3.12,17.7v34.07h-19.75V77.93h15.11l2.65,9.28h1.06c2.21-3.71,5.24-6.41,9.08-8.09,3.84-1.68,7.84-2.52,12-2.52,5.3,0,9.79,.86,13.46,2.59,3.67,1.72,6.52,4.4,8.55,8.02h1.72c2.21-3.71,5.28-6.41,9.22-8.09,3.93-1.68,7.98-2.52,12.13-2.52Z"/><path class="f" d="M857.49,150.32l-6.89-22.54h-34.47l-6.9,22.54h-21.61l33.41-95.06h24.53l33.54,95.06h-21.61Zm-11.67-39.38l-6.9-22.01c-.44-1.5-1.02-3.4-1.72-5.7-.71-2.3-1.41-4.64-2.12-7.03-.71-2.39-1.28-4.46-1.72-6.23-.44,1.77-1.04,3.96-1.79,6.56-.75,2.61-1.46,5.08-2.12,7.43-.66,2.34-1.17,4-1.52,4.97l-6.76,22.01h24.66Z"/><path class="f" d="M918.87,151.64c-10.78,0-19.11-2.96-24.99-8.88-5.88-5.92-8.82-15.33-8.82-28.24,0-8.84,1.5-16.04,4.51-21.61,3-5.57,7.18-9.68,12.53-12.33,5.35-2.65,11.51-3.98,18.5-3.98,4.95,0,9.26,.49,12.93,1.46,3.67,.97,6.87,2.12,9.61,3.45l-5.83,15.25c-3.1-1.24-5.99-2.25-8.69-3.05s-5.37-1.19-8.02-1.19c-10.25,0-15.38,7.29-15.38,21.88,0,7.25,1.35,12.59,4.04,16.04,2.7,3.45,6.47,5.17,11.34,5.17,4.15,0,7.82-.55,11-1.66,3.18-1.1,6.28-2.63,9.28-4.57v16.84c-3.01,1.95-6.16,3.34-9.48,4.18-3.31,.84-7.49,1.26-12.53,1.26Z"/><path class="f" d="M988.08,135.87c2.21,0,4.33-.2,6.36-.6,2.03-.4,4.07-.95,6.1-1.66v14.72c-2.12,.97-4.75,1.77-7.89,2.39-3.14,.62-6.56,.93-10.28,.93-4.33,0-8.2-.71-11.6-2.12-3.4-1.41-6.1-3.84-8.09-7.29-1.99-3.45-2.98-8.31-2.98-14.58v-34.87h-9.41v-8.35l10.87-6.63,5.7-15.25h12.6v15.38h20.28v14.85h-20.28v34.87c0,2.74,.8,4.8,2.39,6.16,1.59,1.37,3.67,2.05,6.23,2.05Z"/><path class="f" d="M1025.07,49.56c2.92,0,5.44,.69,7.56,2.05,2.12,1.37,3.18,3.91,3.18,7.62s-1.06,6.14-3.18,7.56c-2.12,1.42-4.64,2.12-7.56,2.12s-5.55-.71-7.62-2.12c-2.08-1.41-3.12-3.93-3.12-7.56s1.04-6.25,3.12-7.62c2.07-1.37,4.62-2.05,7.62-2.05Zm9.81,28.37v72.39h-19.75V77.93h19.75Z"/><path class="f" d="M1072.8,150.32l-27.58-72.39h20.68l13.92,41.23c.8,2.48,1.41,5.04,1.86,7.69,.44,2.65,.75,5.04,.93,7.16h.53c.27-4.77,1.24-9.72,2.92-14.85l13.92-41.23h20.68l-27.58,72.39h-20.28Z"/><path class="f" d="M1160.83,76.6c9.99,0,17.9,2.85,23.73,8.55,5.83,5.7,8.75,13.81,8.75,24.33v9.55h-46.67c.18,5.57,1.83,9.94,4.97,13.13,3.14,3.18,7.49,4.77,13.06,4.77,4.59,0,8.82-.46,12.66-1.39,3.84-.93,7.8-2.37,11.87-4.31v15.25c-3.63,1.77-7.38,3.07-11.27,3.91-3.89,.84-8.62,1.26-14.19,1.26-7.25,0-13.66-1.35-19.22-4.04-5.57-2.69-9.94-6.76-13.13-12.2-3.18-5.44-4.77-12.35-4.77-20.75s1.44-15.42,4.31-21.08c2.87-5.66,6.87-9.9,12-12.73,5.13-2.83,11.09-4.24,17.9-4.24Zm.13,14.05c-3.89,0-7.07,1.24-9.55,3.71-2.48,2.48-3.93,6.32-4.37,11.54h27.71c-.09-4.33-1.26-7.96-3.51-10.87-2.25-2.92-5.68-4.38-10.28-4.38Z"/><path class="f" d="M1214.66,102.32V62.81h-13.39v-7.16h35.27v7.16h-13.52v39.51h-8.35Zm27.45,0V55.65h12.46l12.46,35.93,12.86-35.93h12.06v46.67h-8.48v-27.05c0-.71,.04-2.1,.13-4.18,.09-2.08,.18-3.65,.26-4.71h-.53l-13.39,35.93h-7.03l-12.73-35.93h-.53c.09,1.42,.18,3.01,.26,4.77,.09,1.77,.13,2.92,.13,3.45v27.71h-7.96Z"/></g><g><rect class="i" x="0" y="0" width="360.58" height="358.92" rx="90.3" ry="90.3"/><path class="g" d="M90.3,0C40.43,0,0,40.43,0,90.3v62.33L180.29,0H90.3Z"/><path class="g" d="M.08,253.19l-.08,.03v15.41c0,49.87,40.43,90.3,90.3,90.3h179.98c4.53,0,8.94-.44,13.29-1.09L.08,253.19Z"/><path class="g" d="M360.58,90.3C360.58,40.43,320.15,0,270.28,0h-9.52l99.82,255.05V90.3Z"/><path class="e" d="M119.25,94.52h13.95c4.74,0,8.58,3.84,8.58,8.58v51.98c0,3.54,2.87,6.42,6.42,6.42h60.46c3.54,0,6.42-2.87,6.42-6.42v-51.98c0-4.74,3.84-8.58,8.58-8.58h14.44c4.74,0,8.58,3.84,8.58,8.58V253.53c0,4.74-3.84,8.58-8.58,8.58h-15.12c-4.74,0-8.58-3.84-8.58-8.58v-61.59c0-3.54-2.87-6.42-6.42-6.42h-59.78c-3.54,0-6.42,2.87-6.42,6.42v61.59c0,4.74-3.84,8.58-8.58,8.58h-13.95c-4.74,0-8.58-3.84-8.58-8.58V103.1c0-4.74,3.84-8.58,8.58-8.58Z"/></g><path class="h" d="M808.2,306.17h-50.5l9.67,22.25c1.86,4.27-2.72,8.49-6.83,6.29l-53.36-28.54H422.45c-6.77,0-12.26-5.49-12.26-12.26v-104.07c0-6.77,5.49-12.26,12.26-12.26h385.74c6.77,0,12.26,5.49,12.26,12.26v104.07c0,6.77-5.49,12.26-12.26,12.26Z"/><g><path class="e" d="M472.48,290.24h-7.78v-88.84h-30.87v-6.98h69.52v6.98h-30.87v88.84Z"/><path class="e" d="M548.57,217.64c3.76,0,6.98,.4,9.66,1.21l-1.07,6.98c-1.43-.36-2.86-.62-4.29-.8-1.43-.18-2.95-.27-4.56-.27-6.62,0-11.83,2.39-15.63,7.18-3.8,4.79-5.7,11.16-5.7,19.12v39.19h-7.65v-71.39h6.44l.81,13.42h.4c1.79-4.03,4.5-7.47,8.12-10.33,3.62-2.86,8.12-4.3,13.49-4.3Z"/><path class="e" d="M586.02,192.41c3.58,0,5.37,1.92,5.37,5.77s-1.79,5.91-5.37,5.91-5.1-1.97-5.1-5.91,1.7-5.77,5.1-5.77Zm3.76,26.44v71.39h-7.52v-71.39h7.52Z"/><path class="e" d="M639.02,290.24l-27.38-71.39h8.05l17.71,47.37c1.16,2.95,2.21,5.86,3.15,8.72,.94,2.86,1.68,5.41,2.21,7.65h.54c.62-2.24,1.41-4.81,2.35-7.72,.94-2.91,1.95-5.79,3.02-8.66l17.71-47.37h8.19l-27.38,71.39h-8.19Z"/><path class="e" d="M700.22,192.41c3.58,0,5.37,1.92,5.37,5.77s-1.79,5.91-5.37,5.91-5.1-1.97-5.1-5.91,1.7-5.77,5.1-5.77Zm3.76,26.44v71.39h-7.52v-71.39h7.52Z"/><path class="e" d="M762.89,217.64c8.05,0,14.05,1.97,17.98,5.91,3.94,3.94,5.9,10.15,5.9,18.65v48.04h-5.77l-1.48-12.08h-.27c-2.51,4.03-5.64,7.27-9.39,9.73-3.76,2.46-8.95,3.69-15.57,3.69s-12.19-1.7-16.17-5.1c-3.98-3.4-5.97-8.36-5.97-14.9,0-7.07,2.89-12.48,8.66-16.24,5.77-3.76,14.25-5.86,25.43-6.31l13.02-.67v-4.97c0-7.07-1.41-12.05-4.23-14.96-2.82-2.91-6.96-4.36-12.41-4.36-3.67,0-7.2,.47-10.6,1.41-3.4,.94-6.8,2.3-10.2,4.09l-2.42-6.17c3.31-1.7,6.98-3.09,11-4.16,4.03-1.07,8.19-1.61,12.48-1.61Zm16.37,36.64l-12.08,.54c-9.13,.36-15.93,1.9-20.4,4.63-4.47,2.73-6.71,6.82-6.71,12.28,0,4.38,1.39,7.72,4.16,10,2.77,2.28,6.58,3.42,11.41,3.42,7.43,0,13.17-2.1,17.24-6.31,4.07-4.2,6.19-10.11,6.37-17.71v-6.84Z"/></g></g></g></g></svg>